<svg width="16" height="16" viewBox="0 0 16 16" fill="none" xmlns="http://www.w3.org/2000/svg">
<path d="M14.1101 12.65C14.2177 12.65 14.3194 12.6115 14.3872 12.5449C14.4549 12.4784 14.4813 12.3911 14.4591 12.3073L14.2345 11.4608C14.3624 11.3623 14.4428 11.2247 14.4428 11.0717C14.4428 10.9107 14.3527 10.7678 14.2129 10.6686V7.72916L13.3126 8.17287V10.6686C13.1728 10.7678 13.0827 10.9107 13.0827 11.0717C13.0827 11.2247 13.1631 11.3623 13.291 11.4608L13.0664 12.3073C13.0442 12.3911 13.0706 12.4784 13.1383 12.5449C13.2061 12.6114 13.3078 12.65 13.4154 12.65H14.1101ZM14.4153 6.01388L8.55793 3.12639C8.38639 3.04224 8.19301 3 7.99963 3C7.80625 3 7.61273 3.04221 7.44223 3.12639L1.58477 6.01388C1.42837 6.09095 1.33337 6.22708 1.33337 6.37358C1.33337 6.52011 1.42837 6.65628 1.58477 6.73347L7.4422 9.62099C7.61271 9.70522 7.80622 9.74738 7.9996 9.74738C8.19298 9.74738 8.38639 9.70517 8.5579 9.62099L14.4153 6.73347C14.5717 6.65631 14.6667 6.52011 14.6667 6.37358C14.6667 6.22708 14.5717 6.09091 14.4153 6.01388ZM7.9996 10.4643C7.63474 10.4643 7.27863 10.3836 6.96822 10.2307L3.55156 8.5462V11.4467C3.55156 12.3051 5.54395 13 7.9996 13C10.4561 13 12.4484 12.3051 12.4484 11.4467V8.5462L9.03183 10.2307C8.72143 10.3836 8.36447 10.4643 7.9996 10.4643Z" fill="#70232F"/>
</svg>
