<svg width="14" height="14" viewBox="0 0 14 14" fill="none" xmlns="http://www.w3.org/2000/svg">
<path d="M1.92277 1.41581C1.88525 1.45333 1.87993 1.50429 1.89323 1.76973C1.93607 2.67581 1.93887 2.81525 1.90933 2.86887C1.87181 2.94391 1.79677 2.93859 1.64123 2.85543C1.57151 2.81791 1.49115 2.79103 1.46693 2.79649C1.35703 2.81791 1.35969 2.87153 1.50711 3.54437L1.65201 4.19859L1.66811 4.96257L1.68421 5.72655L1.78067 5.99465C1.92277 6.38875 1.97373 6.49865 2.13725 6.75065C2.31421 7.02141 2.58231 7.29483 2.82885 7.45569C2.98971 7.56027 3.00847 7.58435 3.00847 7.65939C3.00847 7.82557 3.00049 7.83103 2.72973 7.83103C2.26857 7.83369 1.91745 7.95171 1.64935 8.19825C1.57165 8.26797 1.23649 8.68881 0.904135 9.12855C0.142675 10.1419 0.140015 10.15 0.140015 10.9382C0.140015 11.4395 0.172215 11.6245 0.303535 11.8845C0.448295 12.1713 0.796755 12.4688 1.09971 12.56L1.15865 12.5787V12.0667C1.15865 11.6378 1.16663 11.5387 1.20149 11.4769C1.34625 11.2357 1.70017 11.2839 1.77521 11.5546C1.78865 11.6082 1.80209 11.871 1.80209 12.139V12.6295H3.94409H6.08876L6.09687 12.0639L6.10486 11.4982L6.20411 11.4071C6.32746 11.2972 6.47221 11.2837 6.58477 11.3722C6.72422 11.4821 6.73486 11.5384 6.73486 12.096V12.6108L6.8743 12.5947C7.06736 12.5706 7.36485 12.423 7.54181 12.2595L7.6947 12.1201H8.90374H10.1128V11.6911C10.1128 11.2703 10.1154 11.2595 10.1798 11.1951C10.2657 11.1066 10.405 11.1066 10.5069 11.1924L10.5819 11.2567L10.5899 11.6775L10.6007 12.0984L10.7079 12.0823C10.9895 12.0368 11.311 11.7767 11.4478 11.4818C11.5068 11.3532 11.5202 11.2808 11.5283 11.0449L11.5391 10.7607L11.3568 10.7393C10.7751 10.6777 10.2041 10.3908 9.78322 9.95105C8.97626 9.10657 8.83961 7.83313 9.44806 6.83591C9.59799 6.58979 10.0188 6.15019 10.2146 6.03483L10.3298 5.96777L10.3218 5.51207C10.3138 5.06967 10.311 5.05091 10.236 4.89817C10.1314 4.68635 9.96255 4.52283 9.74275 4.41825L9.56314 4.33243L8.86075 4.32445L8.15837 4.31367L8.00283 4.11529C7.83931 3.90347 7.76161 3.86861 7.71332 3.97585C7.66502 4.08575 7.5981 4.06433 7.33 3.84453C7.00828 3.58175 7.01093 3.58175 6.95997 3.62473C6.92511 3.65427 6.9198 3.73197 6.93856 4.20377C6.95998 4.83111 6.95998 4.82845 6.73206 4.72121C6.61404 4.66493 6.59527 4.66227 6.55775 4.69713C6.52289 4.73465 6.53367 4.80171 6.64091 5.29227C6.76159 5.84177 6.7616 5.85255 6.7616 6.35389V6.86055L6.85806 7.13397C6.96796 7.45303 7.05909 7.62187 7.23605 7.84167C7.34862 7.98111 7.58998 8.18747 7.7374 8.27329C7.77492 8.29471 7.78023 8.32159 7.76693 8.39929L7.74817 8.49575L7.46132 8.50653C7.19588 8.51451 7.15836 8.52263 6.9842 8.60845L6.7938 8.70225L6.60886 8.47979C6.23352 8.01863 5.93055 7.86057 5.41592 7.85777C5.15593 7.85777 5.14781 7.85245 5.11561 7.65673C5.09685 7.55215 5.09951 7.54683 5.22551 7.46913C5.40513 7.35657 5.692 7.08035 5.8474 6.86867C6.01358 6.64075 6.15036 6.36733 6.2898 5.98135L6.3997 5.67307V4.54719C6.3997 3.43727 6.3997 3.41851 6.3381 3.24701C6.17192 2.78585 5.78859 2.44817 5.33009 2.36501C5.23896 2.34891 4.82078 2.33547 4.35163 2.33547L3.53123 2.33281L3.34363 2.08879C3.07819 1.74299 3.00315 1.70813 2.92545 1.88775C2.85839 2.03783 2.80743 2.01641 2.40535 1.68139C2.20431 1.50989 2.02203 1.37045 2.00327 1.37045C1.98171 1.37031 1.94685 1.38907 1.92277 1.41581Z" fill="#70232F"/>
<path d="M11.4851 6.03764C11.3538 6.07516 11.1983 6.244 11.1634 6.39156C11.1447 6.4666 11.1312 6.7508 11.1312 7.11802V7.7238H10.4878C9.70224 7.7238 9.62188 7.74522 9.49322 7.99722C9.37786 8.22514 9.46102 8.53342 9.6755 8.6674C9.77476 8.72634 9.79884 8.729 10.4529 8.73712L11.1286 8.7451L11.1365 9.4073C11.1445 10.0561 11.1445 10.0722 11.2116 10.1902C11.3698 10.4691 11.737 10.5307 11.981 10.3162C12.1419 10.1741 12.1499 10.1312 12.1499 9.39932V8.74244H12.7933C13.3161 8.74244 13.4582 8.73446 13.5385 8.70226C13.954 8.5253 13.9701 7.98378 13.5654 7.77476C13.4743 7.72912 13.4019 7.7238 12.8067 7.7238H12.15V7.06706C12.15 6.33514 12.142 6.2923 11.9812 6.1502C11.8364 6.02154 11.6702 5.98402 11.4851 6.03764Z" fill="#70232F"/>
</svg>
