<svg width="16" height="16" viewBox="0 0 16 16" fill="none" xmlns="http://www.w3.org/2000/svg">
<path fill-rule="evenodd" clip-rule="evenodd" d="M13.2734 0.118415C12.8647 0.128253 12.4539 0.236998 12.077 0.45459C10.871 1.15089 10.4535 2.71037 11.1498 3.91638C11.1614 3.93651 11.174 3.95601 11.186 3.97574L8.1988 6.74759C7.35625 6.12136 6.31436 5.75003 5.18746 5.75003C4.86763 5.75003 4.55503 5.78079 4.25142 5.83792L3.32197 3.63516C4.06875 3.03865 4.29219 1.95912 3.80098 1.10831C3.25998 0.17127 2.04527 -0.153397 1.10824 0.387602C0.171195 0.928603 -0.154576 2.14221 0.386426 3.07925C0.781357 3.7633 1.53551 4.1218 2.27827 4.05484L3.17037 6.1708C1.38078 6.95251 0.12496 8.73975 0.12496 10.8125C0.124954 12.3899 0.852067 13.8018 1.98823 14.7314C2.0553 14.8262 2.1501 14.898 2.25959 14.9368C3.08717 15.5263 4.09735 15.875 5.18746 15.875C6.31523 15.875 7.35811 15.5035 8.20101 14.8764C8.24847 14.8494 8.29177 14.8158 8.32953 14.7764C8.82425 14.3832 9.24354 13.9 9.5633 13.3515L11.9385 13.8931C11.9352 14.2332 12.0178 14.578 12.1989 14.8917C12.7399 15.8288 13.9546 16.1534 14.8917 15.6124C15.8287 15.0714 16.1545 13.8578 15.6135 12.9208C15.0725 11.9837 13.8578 11.658 12.9207 12.199C12.6496 12.3555 12.4307 12.5691 12.2681 12.8153L10.0247 12.3023C10.1704 11.8309 10.2499 11.3307 10.2499 10.8125C10.2499 10.6041 10.2362 10.3992 10.2115 10.1973L12.2 9.84461C12.7411 10.7808 13.955 11.1061 14.8916 10.5653C15.8287 10.0243 16.1534 8.80961 15.6124 7.87257C15.0714 6.93553 13.8577 6.61087 12.9207 7.15187C12.3276 7.49431 11.9802 8.10616 11.9418 8.74708L9.9511 9.10084C9.73982 8.51552 9.42343 7.97982 9.02495 7.51661L11.9759 4.77772C12.7491 5.27139 13.7655 5.33144 14.6104 4.84363C15.8164 4.14734 16.235 2.58897 15.5387 1.38294C15.06 0.553806 14.1726 0.0967605 13.2734 0.118415ZM5.18751 6.875C7.3688 6.875 9.12501 8.63122 9.12502 10.8125C9.12501 11.8109 8.75649 12.7192 8.14834 13.4119C7.8052 12.7869 7.27007 12.282 6.62343 11.9771C7.11968 11.5632 7.43751 10.9416 7.43751 10.25C7.43751 9.01403 6.42349 8 5.18751 8C3.95154 8 2.93751 9.01403 2.93751 10.25C2.93751 10.9416 3.25535 11.5632 3.75161 11.977C3.10507 12.2822 2.56976 12.7868 2.2267 13.4119C1.61854 12.7192 1.25001 11.8109 1.25001 10.8125C1.25001 8.63122 3.00623 6.875 5.18751 6.875Z" fill="#70232F"/>
</svg>
