<svg width="58" height="67" viewBox="0 0 58 67" fill="none" xmlns="http://www.w3.org/2000/svg">
<path d="M54.0427 40.7872L32.8957 52.9958L19.4064 60.7844L19.1882 60.9103L11.7494 65.2051C6.62359 68.1648 0.214966 64.4655 0.214966 58.5452V9.71027C0.214966 3.79001 6.62289 0.091347 11.7494 3.05042L19.994 7.81027L21.0622 8.42672L32.8957 15.259L37.3719 17.843L37.8314 18.109L54.042 27.4675C59.1684 30.4273 59.1684 37.8275 54.0427 40.7872Z" fill="white"/>
<path d="M23.4386 43.1116C22.4703 43.3107 20.8799 43.4325 18.6703 42.7442C17.9814 40.5346 18.1031 38.9435 18.303 37.9759C19.2023 33.6186 23.9382 30.9642 30.2237 31.1915C30.4503 37.4763 27.7959 42.2129 23.4386 43.1116Z" fill="#F7DAAB"/>
<path d="M27.7495 47.6301C27.1168 47.5928 26.1218 47.4091 24.9248 46.647C24.9839 45.2297 25.4019 44.3079 25.7327 43.7674C27.2231 41.3347 30.6818 40.5255 34.4607 41.669C33.2398 45.4232 30.5981 47.7982 27.7495 47.6301Z" fill="#2F050F"/>
<path d="M40.2346 44.7477C39.6829 44.6738 38.8082 44.4381 37.7231 43.6394C37.6879 42.2925 37.9954 41.4403 38.2495 40.9456C39.3951 38.7184 42.3485 38.1575 45.6975 39.477C44.8657 42.9786 42.7173 45.0805 40.2346 44.7477Z" fill="#D86B79"/>
<path d="M52.8309 41.4086C52.1828 41.84 51.0463 42.4001 49.1695 42.562C47.8895 41.1792 47.4257 39.9998 47.2364 39.2454C46.3849 35.8472 48.9704 32.5328 53.707 30.827C56.0644 35.2751 55.747 39.4671 52.8309 41.4086Z" fill="#2F050F"/>
<path d="M40.9368 36.4538C40.3711 36.5805 39.4379 36.6684 38.1284 36.2856C37.6899 34.9943 37.7364 34.0584 37.8391 33.487C38.3008 30.9178 41.0438 29.3105 44.7411 29.3809C44.9712 33.0718 43.4835 35.8817 40.9368 36.4538Z" fill="#D86B79"/>
<path d="M36.8111 29.9755C36.3635 30.3471 35.5705 30.8516 34.2292 31.1071C33.2539 30.1521 32.8725 29.2929 32.7057 28.7356C31.9555 26.2262 33.6761 23.5366 37.0074 21.9118C38.8814 25.1087 38.8251 28.3014 36.8111 29.9755Z" fill="#D86B79"/>
<path d="M29.0605 26.5865C28.6883 27.0094 28 27.6125 26.7277 28.0713C25.5955 27.3317 25.0656 26.5858 24.8003 26.089C23.6082 23.8512 24.8116 21.0406 27.791 18.9696C30.2132 21.6718 30.736 24.6837 29.0605 26.5865Z" fill="#D86B79"/>
<path d="M18.5268 25.7681C17.9878 25.9046 17.1025 26.0144 15.8696 25.6885C15.4812 24.4747 15.5459 23.5845 15.6543 23.0391C16.1455 20.5853 18.778 18.9808 22.2804 18.9421C22.4204 22.441 20.9518 25.1523 18.5268 25.7681Z" fill="#D86B79"/>
<path d="M16.1159 16.2554C15.5748 15.9915 14.7683 15.4666 13.9935 14.3561C14.5558 13.1246 15.2546 12.4624 15.7394 12.1057C17.9223 10.4984 21.2473 11.0452 24.148 13.4343C21.7244 16.3068 18.5528 17.4433 16.1159 16.2554Z" fill="#D86B79"/>
<path d="M34.5494 50.2183C34.1715 49.758 33.6599 48.9439 33.4087 47.5766C34.3967 46.5984 35.2812 46.2226 35.8548 46.0615C38.4367 45.3346 41.1839 47.1234 42.825 50.5342C39.5288 52.3941 36.2517 52.2907 34.5494 50.2183Z" fill="#D86B79"/>
<path d="M26.9874 51.5476C27.0149 50.9459 27.1739 50.0015 27.872 48.8714C29.1978 48.9446 30.064 49.3541 30.5728 49.6757C32.8648 51.1239 33.6635 54.425 32.6403 58.0069C29.1168 56.7986 26.865 54.2561 26.9874 51.5476Z" fill="#D86B79"/>
<path d="M20.8025 48.9826C20.9974 48.4843 21.407 47.7314 22.3457 46.9552C23.5005 47.3429 24.1529 47.8996 24.5131 48.2951C26.1352 50.0747 25.9065 53.0415 23.9833 55.7944C21.2015 53.9127 19.9257 51.2246 20.8025 48.9826Z" fill="#D86B79"/>
<path d="M12.5199 39.5888C12.192 40.1046 11.5593 40.8653 10.287 41.562C8.97603 40.9406 8.30047 40.2186 7.94299 39.7225C6.33573 37.4911 7.17032 34.2625 9.99569 31.5539C12.9731 34.0929 13.9941 37.2673 12.5199 39.5888Z" fill="#D86B79"/>
<path d="M6.03456 42.1545C5.99163 42.6957 5.8143 43.5521 5.11904 44.6027C3.85941 44.6062 3.04663 44.2846 2.57093 44.0228C0.429558 42.8434 -0.239664 39.9224 0.832781 36.6544C4.15285 37.5537 6.22597 39.7176 6.03456 42.1545Z" fill="#2F050F"/>
<path d="M5.57222 49.0086C5.85229 48.7799 6.35192 48.4703 7.21185 48.3105C7.86418 48.8925 8.13089 49.4167 8.25192 49.7573C8.79589 51.2907 7.74948 52.9402 5.63766 53.9416C4.352 51.9909 4.31189 50.0374 5.57222 49.0086Z" fill="#2F050F"/>
<path d="M9.076 52.4589C9.39055 52.202 9.9514 51.8544 10.9169 51.6749C11.6494 52.3287 11.9485 52.917 12.085 53.2998C12.6958 55.021 11.5207 56.8732 9.14989 57.997C7.70518 55.8064 7.66085 53.6136 9.076 52.4589Z" fill="#2F050F"/>
<path d="M12.432 57.4277C12.6635 57.2391 13.0766 56.9823 13.7873 56.8507C14.3264 57.332 14.5466 57.7648 14.6473 58.0463C15.0969 59.3136 14.2321 60.676 12.4869 61.5043C11.4236 59.8921 11.3905 58.2778 12.432 57.4277Z" fill="#2F050F"/>
<path d="M16.1061 56.7817C15.8386 56.61 15.4439 56.2765 15.0765 55.6009C15.3855 54.8972 15.7514 54.5313 16.0033 54.3378C17.137 53.4659 18.8005 53.8923 20.2122 55.3856C18.9307 56.9914 17.3087 57.5558 16.1061 56.7817Z" fill="#F7DAAB"/>
<path d="M13.9435 52.1337C13.6395 51.9381 13.1899 51.5588 12.7726 50.7904C13.1244 49.9895 13.5403 49.5744 13.8267 49.3534C15.1166 48.3619 17.0089 48.8467 18.614 50.5448C17.1567 52.3716 15.3123 53.0134 13.9435 52.1337Z" fill="#F7DAAB"/>
<path d="M17.7955 7.40705C17.716 7.72794 17.5155 8.23742 16.9483 8.86935C16.0989 8.89046 15.5817 8.71242 15.2861 8.56464C13.954 7.89894 13.7781 6.18049 14.8083 4.22983C16.9602 4.71257 18.1537 5.96235 17.7955 7.40705Z" fill="#2F050F"/>
<path d="M22.934 6.07071C22.6638 6.31138 22.1642 6.65126 21.2353 6.88771C20.4021 6.41482 20.0087 5.956 19.8117 5.652C18.925 4.28541 19.7892 2.64719 21.958 1.50015C23.7482 3.17778 24.1493 4.9863 22.934 6.07071Z" fill="#D86B79"/>
<path d="M28.9085 5.98275C28.5777 6.17415 27.9958 6.41482 27.0282 6.44578C26.3569 5.74841 26.1077 5.16997 26.0036 4.80193C25.537 3.14612 26.8445 1.61697 29.2751 0.915375C30.5284 3.11374 30.3982 5.12212 28.9085 5.98275Z" fill="#F7DAAB"/>
<path d="M34.1286 8.88132C33.7028 8.9158 33.0153 8.88554 32.1146 8.47739C31.9584 7.50065 32.1097 6.83002 32.256 6.42821C32.9126 4.61969 35.1018 3.73513 37.7731 4.15806C37.4768 6.8455 36.0462 8.72439 34.1286 8.88132Z" fill="#F7DAAB"/>
<path d="M38.139 12.9431C37.7287 12.903 37.0736 12.751 36.2432 12.1859C36.17 11.1838 36.3678 10.5414 36.5388 10.1656C37.3086 8.47668 39.4732 7.97846 41.9967 8.87006C41.502 11.5012 39.9862 13.1239 38.139 12.9431Z" fill="#F7DAAB"/>
<path d="M38.7111 17.7853C38.4388 17.539 38.0496 17.0823 37.7491 16.2273C38.2143 15.4497 38.6872 15.0795 39.0031 14.893C40.4246 14.0528 42.2261 14.8269 43.5667 16.8148C41.856 18.4939 39.9363 18.8922 38.7111 17.7853Z" fill="#F7DAAB"/>
<path d="M50.8782 30.2204C50.7156 30.6546 50.3483 31.3414 49.425 32.1852C48.1745 32.1901 47.4392 31.9332 47.0254 31.7242C45.1627 30.782 45.1493 28.4401 46.9409 25.8181C50.0351 26.5337 51.6107 28.2655 50.8782 30.2204Z" fill="#D86B79"/>
<path d="M10.2195 48.0368C9.87959 47.8179 9.37644 47.3936 8.90918 46.5337C9.30255 45.6379 9.7684 45.1727 10.0893 44.9257C11.5326 43.816 13.65 44.3585 15.4466 46.2592C13.8154 48.3035 11.7507 49.022 10.2195 48.0368Z" fill="#F7DAAB"/>
<path d="M17.899 29.0952C18.4219 28.9791 19.2797 28.8996 20.4661 29.2507C20.8236 30.4351 20.7476 31.2936 20.6343 31.8171C20.1227 34.1731 17.5535 35.646 14.1687 35.5791C14.085 32.1943 15.5451 29.6181 17.899 29.0952Z" fill="#2F050F"/>
<path d="M12.6663 25.6625C13.211 25.8539 14.0385 26.267 14.9076 27.248C14.5262 28.502 13.9463 29.2225 13.5311 29.6237C11.6621 31.4294 8.44899 31.29 5.4104 29.3225C7.35192 26.267 10.2146 24.8012 12.6663 25.6625Z" fill="#2F050F"/>
<path d="M10.4863 20.2982C10.9718 20.7169 11.6565 21.4656 12.1329 22.7626C11.1787 23.7611 10.2526 24.1749 9.6397 24.3649C6.88259 25.2192 3.578 23.671 1.26562 20.5001C4.65114 18.5143 8.29914 18.4144 10.4863 20.2982Z" fill="#2F050F"/>
<path d="M12.1308 13.2647C12.0984 14.0247 11.8873 15.2435 10.9373 16.8141C9.11258 17.0196 7.91769 16.7016 7.21399 16.413C4.04802 15.1133 2.91999 11.1578 4.29643 6.44226C9.1548 7.16567 12.2757 9.84467 12.1308 13.2647Z" fill="#F7DAAB"/>
<path d="M39.0327 40.1842C38.671 44.2122 34.8879 48.0009 30.7733 48.9938C23.3823 50.7777 19.0693 42.5662 11.7775 43.671C8.79663 44.1228 4.55541 46.248 0.214966 54.6833C0.214966 53.7044 0.214966 52.7256 0.214966 51.7467C4.3436 44.5999 8.32374 42.5191 11.4109 42.1109C19.2283 41.0779 24.1247 50.4005 30.9577 48.2592C34.4516 47.1642 37.1024 43.4881 37.3811 39.9998C37.7259 35.6861 34.4206 31.9255 31.508 30.0888C25.1521 26.0819 19.4901 30.497 15.0814 26.4183C11.4784 23.0842 12.3539 17.4461 12.42 17.0583C13.097 13.081 16.0772 9.51957 19.9933 7.81027C21.8623 6.99257 23.946 6.59779 26.093 6.78076C31.9506 7.27898 36.8906 11.9544 37.8307 18.1097L37.3712 17.8437C36.1827 12.1113 31.47 7.93272 26.093 7.6069C24.3436 7.50135 22.6322 7.80957 21.0615 8.42742C17.0384 10.0108 13.9407 13.6278 13.5213 17.5179C13.4678 18.0076 13.111 21.8963 15.8154 24.7674C19.666 28.8566 24.6736 25.5225 31.2321 29.0804C34.7232 30.9741 39.4746 35.2653 39.0327 40.1842Z" fill="#D86B79"/>
<path d="M19.4064 60.7844L19.1882 60.9103C17.082 59.6437 15.7858 58.2721 14.9899 57.2532C12.9689 54.6664 13.1659 53.0204 10.8606 50.5539C9.69456 49.3062 8.33078 47.8475 6.63908 47.9847C5.21126 48.1001 4.19934 49.2999 2.60123 51.1964C1.46826 52.5405 0.702632 53.791 0.214966 54.6832C0.214966 53.6741 0.214966 52.6643 0.214966 51.6552C0.37541 51.3456 0.613966 50.9262 0.948929 50.4624C1.33104 49.934 3.56741 46.8384 6.45471 46.7919C8.97326 46.7511 10.8001 49.0494 11.7775 50.2788C13.743 52.7516 13.3404 54.2737 15.1729 56.8858C16.5634 58.8682 18.2474 60.0842 19.4064 60.7844Z" fill="#F7DAAB"/>
<g style="mix-blend-mode:multiply">
<path d="M13.4446 64.2255L11.7494 65.2043C6.62359 68.1641 0.214966 64.4648 0.214966 58.5445V9.71027C0.214966 3.79001 6.62289 0.091347 11.7494 3.05042L13.4446 4.02927C9.73467 4.09964 6.36393 7.08757 6.36393 11.245V57.0097C6.36393 61.1665 9.73467 64.1544 13.4446 64.2255Z" fill="#B8747F" fill-opacity="0.6"/>
</g>
</svg>
