<svg width="18" height="16" viewBox="0 0 18 16" fill="none" xmlns="http://www.w3.org/2000/svg">
<path d="M11.2265 11.236C10.7819 11.1704 10.7718 10.0455 10.7718 10.0455C10.7718 10.0455 12.0777 8.85398 12.3618 7.25249C13.1271 7.25249 13.5999 5.54948 12.834 4.9503C12.8669 4.31956 13.8177 0 8.99946 0C4.18173 0 5.13361 4.31956 5.16541 4.9503C4.40009 5.54948 4.87285 7.25249 5.63817 7.25249C5.92225 8.85398 7.22819 10.0455 7.22819 10.0455C7.22819 10.0455 7.21758 11.1704 6.77345 11.236C5.34243 11.4464 0 13.618 0 16H8.99946H18C18 13.618 12.6575 11.4464 11.2265 11.236Z" fill="#70232F"/>
</svg>
