<svg width="172" height="178" viewBox="0 0 172 178" fill="none" xmlns="http://www.w3.org/2000/svg">
<path d="M35.7566 94.4875L35.8024 94.4569C37.4223 92.8342 39.3463 91.5469 41.4643 90.6685C43.5822 89.7902 45.8526 89.338 48.1455 89.338C50.4383 89.338 52.7087 89.7902 54.8266 90.6685C56.9446 91.5469 58.8686 92.8342 60.4885 94.4569L60.5802 94.5333L73.6799 108.092L105 76.7869C108.275 73.5171 112.715 71.6807 117.343 71.6807C121.971 71.6807 126.41 73.5171 129.686 76.7869L171.767 118.929V32.3825C171.767 15.0488 157.658 0.940292 140.325 0.940292H31.6753C14.3416 0.940292 0.233093 15.0488 0.233093 32.3825V130.622L35.7566 94.4875ZM53.1209 34.5378C55.6059 34.5378 58.0352 35.2747 60.1014 36.6553C62.1677 38.0359 63.7781 39.9983 64.7291 42.2942C65.6801 44.5901 65.9289 47.1164 65.4441 49.5537C64.9593 51.991 63.7626 54.2298 62.0054 55.987C60.2482 57.7442 58.0094 58.9409 55.5721 59.4257C53.1348 59.9105 50.6085 59.6617 48.3126 58.7107C46.0167 57.7597 44.0544 56.1493 42.6737 54.083C41.2931 52.0168 40.5562 49.5875 40.5562 47.1025C40.5562 43.7701 41.88 40.5742 44.2363 38.2179C46.5926 35.8616 49.7885 34.5378 53.1209 34.5378Z" fill="#BBBBBB"/>
<path d="M50.7363 104.148C50.0401 103.47 49.1062 103.092 48.1347 103.095C47.1632 103.098 46.2314 103.481 45.5393 104.163L0.523499 149.928C2.6329 165.244 15.7937 177.06 31.6753 177.06H121.218L50.7363 104.148Z" fill="#BBBBBB"/>
<path d="M119.964 86.5085C119.264 85.8223 118.323 85.4379 117.343 85.4379C116.363 85.4379 115.421 85.8223 114.721 86.5085L83.2486 117.997L140.34 177.06C157.674 177.06 171.767 162.951 171.767 145.617V138.403L119.964 86.5085Z" fill="#BBBBBB"/>
</svg>
