<svg width="14" height="14" viewBox="0 0 14 14" fill="none" xmlns="http://www.w3.org/2000/svg">
<path fill-rule="evenodd" clip-rule="evenodd" d="M12.2975 5.89373C12.0053 5.97756 11.6957 6.0226 11.375 6.0226C9.60309 6.0226 8.16667 4.64731 8.16667 2.9508C8.16667 2.58022 8.2352 2.22498 8.3608 1.89604C7.70709 1.67487 7.00364 1.55452 6.27083 1.55452C2.80762 1.55452 0 4.24243 0 7.55851C0 10.8746 2.80762 13.5625 6.27083 13.5625C9.73405 13.5625 12.5417 10.8746 12.5417 7.55851C12.5417 6.98089 12.4565 6.42234 12.2975 5.89373ZM5.06409 8.2322H8.72998V5.22354H5.06409H4.36573V10.5722H5.06409V8.2322Z" fill="#70232F"/>
<path fill-rule="evenodd" clip-rule="evenodd" d="M11.375 5.4641C12.8247 5.4641 14 4.33885 14 2.9508C14 1.56274 12.8247 0.4375 11.375 0.4375C9.92525 0.4375 8.75 1.56274 8.75 2.9508C8.75 4.33885 9.92525 5.4641 11.375 5.4641ZM10.2083 2.39229L9.625 2.9508L11.0833 4.34707L13.125 2.39229L12.5417 1.83378L11.0833 3.23005L10.2083 2.39229Z" fill="#70232F"/>
</svg>
